<?xml version="1.0" encoding="UTF-8"?><svg id="a" xmlns="http://www.w3.org/2000/svg" viewBox="0 0 65 50"><defs><style>.b{fill:#fff;}</style></defs><path class="b" d="M8.04,49.5c-4.59,0-7.68-3.07-7.69-7.64,0-2.95,0-5.91,0-8.86,.01-6.08,.02-12.37-.04-18.56-.02-2.14,.76-4.11,2.2-5.57,1.39-1.4,3.26-2.18,5.26-2.18,.11,0,.22,0,.33,0,1.02,.04,2.11,.06,3.46,.06,.81,0,1.62,0,2.43-.01,.81,0,1.62-.01,2.42-.01,.36,0,.72,0,1.08,0h0c.56,0,1.29-.11,1.64-1.07,.11-.29,.25-.58,.41-.88,.1-.2,.21-.4,.3-.61,1.1-2.42,3.02-3.61,5.87-3.64,2.26-.03,4.55-.04,6.8-.04s4.53,.01,6.76,.04c2.94,.03,4.9,1.25,5.81,3.63,.71,1.85,1.79,2.64,3.59,2.64,.18,0,.36,0,.56-.02,.96-.07,1.99-.11,3.24-.11,.85,0,1.69,.01,2.54,.03,.74,.01,1.48,.03,2.21,.03,4.29,.02,7.41,3.15,7.42,7.44,.02,10.17,.02,19.28,0,27.86,0,4.32-3.16,7.46-7.5,7.46-3.29,0-6.57,0-9.86,0H8.04Zm48.76-3.05c3.2,0,4.82-1.64,4.82-4.87V14.53c0-3.12-1.64-4.76-4.75-4.77h-5.7c-1.79,0-3.58,0-5.37,0-.97,0-1.53-.36-1.91-1.19-.23-.51-.47-1.01-.72-1.51-.25-.52-.51-1.03-.74-1.55-.56-1.26-1.6-1.93-3.02-1.94-2.31-.01-4.61-.02-6.92-.02s-4.62,0-6.92,.02c-1.41,0-2.45,.68-3.01,1.95-.19,.44-.41,.87-.62,1.3-.26,.52-.53,1.06-.76,1.61-.4,.95-1.01,1.34-2.11,1.34-1.81-.02-3.57-.03-5.33-.03-1.63,0-3.26,0-4.9,.01h-.91c-2.85,.01-4.56,1.73-4.56,4.6,0,9.14,0,18.28,0,27.41,0,2.97,1.7,4.68,4.65,4.68H56.8Z"/><path class="b" d="M32.47,41.32c-7.58-.01-13.74-6.21-13.73-13.82,0-7.56,6.18-13.72,13.76-13.72,3.67,0,7.13,1.44,9.73,4.05,2.61,2.62,4.04,6.08,4.04,9.75-.01,7.57-6.2,13.74-13.78,13.74h-.02Zm.05-24.49c-5.9,0-10.72,4.81-10.74,10.72,0,2.87,1.1,5.57,3.12,7.6,2.02,2.03,4.72,3.15,7.6,3.15,5.9,0,10.71-4.78,10.72-10.65,.02-5.94-4.77-10.79-10.68-10.81h-.03Z"/></svg>