<?xml version="1.0" encoding="utf-8"?>
<!-- Generator: Adobe Illustrator 26.1.0, SVG Export Plug-In . SVG Version: 6.00 Build 0)  -->
<svg version="1.1" id="Layer_1" xmlns="http://www.w3.org/2000/svg" xmlns:xlink="http://www.w3.org/1999/xlink" x="0px" y="0px"
	 viewBox="0 0 48 39.61486" style="enable-background:new 0 0 48 39.61486;" xml:space="preserve">
<style type="text/css">
	.st0{fill:#FFFFFF;}
</style>
<path class="st0" d="M23.76891,39.61486V34.9271l14.26135-14.26135l4.68776,4.68776L28.45667,39.61486H23.76891z M0,25.74966
	v-3.96149h19.80743v3.96149H0z M45.55708,22.51444l-4.68776-4.68776l1.91471-1.91472c0.35213-0.35213,0.8143-0.5282,1.38652-0.5282
	s1.03439,0.17607,1.38652,0.5282l1.91472,1.91472C47.82393,18.17882,48,18.64099,48,19.21321s-0.17607,1.03439-0.5282,1.38652
	L45.55708,22.51444z M0,14.85557v-3.96149h31.03164v3.96149H0z M0,3.96149V0h31.03164v3.96149H0z"/>
</svg>
