<?xml version="1.0" encoding="utf-8"?>
<!-- Generator: Adobe Illustrator 27.0.1, SVG Export Plug-In . SVG Version: 6.00 Build 0)  -->
<!DOCTYPE svg PUBLIC "-//W3C//DTD SVG 1.1//EN" "http://www.w3.org/Graphics/SVG/1.1/DTD/svg11.dtd" [
	<!ENTITY ns_extend "http://ns.adobe.com/Extensibility/1.0/">
	<!ENTITY ns_ai "http://ns.adobe.com/AdobeIllustrator/10.0/">
	<!ENTITY ns_graphs "http://ns.adobe.com/Graphs/1.0/">
	<!ENTITY ns_vars "http://ns.adobe.com/Variables/1.0/">
	<!ENTITY ns_imrep "http://ns.adobe.com/ImageReplacement/1.0/">
	<!ENTITY ns_sfw "http://ns.adobe.com/SaveForWeb/1.0/">
	<!ENTITY ns_custom "http://ns.adobe.com/GenericCustomNamespace/1.0/">
	<!ENTITY ns_adobe_xpath "http://ns.adobe.com/XPath/1.0/">
]>
<svg version="1.1" id="Layer_1" xmlns:x="&ns_extend;" xmlns:i="&ns_ai;" xmlns:graph="&ns_graphs;"
	 xmlns="http://www.w3.org/2000/svg" xmlns:xlink="http://www.w3.org/1999/xlink" x="0px" y="0px" viewBox="0 0 256 256"
	 style="enable-background:new 0 0 256 256;" xml:space="preserve">
<style type="text/css">
	.st0{fill:none;stroke:#FFD60A;stroke-width:4;stroke-miterlimit:10;}
</style>
<metadata>
	<sfw  xmlns="&ns_sfw;">
		<slices></slices>
		<sliceSourceBounds  bottomLeftOrigin="true" height="233" width="233.5" x="12.8" y="64.2"></sliceSourceBounds>
	</sfw>
</metadata>
<symbol  id="New_Symbol" viewBox="-40 -40.1 80.1 80.2">
	<path vector-effect="non-scaling-stroke" class="st0" d="M-39.6-40.1v24.5c0,30.5,24.7,55.2,55.2,55.2H40"/>
</symbol>
<use xlink:href="#New_Symbol"  width="80.1" height="80.2" id="XMLID_00000085212741895497950220000013912187147782662787_" x="-40" y="-40.1" transform="matrix(0.9474 0 0 -0.9474 48.4512 48.4732)" style="overflow:visible;"/>
<use xlink:href="#New_Symbol"  width="80.1" height="80.2" x="-40" y="-40.1" transform="matrix(5.800995e-17 0.9474 0.9474 -5.800995e-17 205.9994 48.4732)" style="overflow:visible;"/>
<use xlink:href="#New_Symbol"  width="80.1" height="80.2" x="-40" y="-40.1" transform="matrix(-0.9474 0 0 0.9474 205.9994 205.4855)" style="overflow:visible;"/>
<use xlink:href="#New_Symbol"  width="80.1" height="80.2" x="-40" y="-40.1" transform="matrix(-5.800995e-17 -0.9474 -0.9474 5.800995e-17 48.4512 205.4855)" style="overflow:visible;"/>
</svg>
