<?xml version="1.0" encoding="utf-8"?>
<!-- Generator: Adobe Illustrator 26.1.0, SVG Export Plug-In . SVG Version: 6.00 Build 0)  -->
<svg version="1.1" id="Layer_1" xmlns="http://www.w3.org/2000/svg" xmlns:xlink="http://www.w3.org/1999/xlink" x="0px" y="0px"
	 viewBox="0 0 240.00322 41.67345" style="enable-background:new 0 0 240.00322 41.67345;" xml:space="preserve">
<style type="text/css">
	.st0{fill:#FFFFFF;}
</style>
<g>
	<path class="st0" d="M8.29152,22.78935v18.08178H0V0.74892h19.47238v6.84753H8.29152v9.04089h10.32514v6.15201H8.29152z"/>
</g>
<g>
	<path class="st0" d="M39.2574,41.67345c-9.62917,0-15.83502-6.20585-15.83502-16.26266V0.74892h8.23857v25.14291
		c0,4.92161,2.78164,8.29242,7.59645,8.29242s7.54305-3.37081,7.54305-8.29242V0.74892h8.29197V25.4108
		C55.09243,35.4676,48.94042,41.67345,39.2574,41.67345z"/>
</g>
<g>
	<path class="st0" d="M78.03101,40.87113H59.84243V0.74892h8.29152v33.27468h9.89706V40.87113z"/>
</g>
<g>
	<path class="st0" d="M99.91232,41.67345c-12.25107,0-21.13132-9.04089-21.13132-20.91682C78.78101,8.93365,87.66125,0,99.91232,0
		c10.27129,0,18.50941,6.52669,20.43534,16.26266h-8.45261c-1.81868-5.0284-6.04476-8.50556-11.98273-8.50556
		c-7.48965,0-12.73254,5.56328-12.73254,13.10633c0,7.43626,5.24289,12.99954,12.73254,12.99954
		c6.04476,0,10.43149-3.63736,12.08997-8.88025h8.34537C118.42174,34.98656,110.34381,41.67345,99.91232,41.67345z"/>
</g>
<g>
	<path class="st0" d="M141.4884,26.6412h-8.39922v14.22994h-8.29153V0.74892h17.06498c9.09474,0,14.28378,5.40309,14.28378,13.10678
		c0,5.0818-2.40785,9.14724-6.79457,11.23381l6.68777,15.78162h-8.7205L141.4884,26.6412z M133.08919,7.54305v12.99954h7.32945
		c5.18906,0,7.16792-3.04953,7.16792-6.52669c0-3.37037-1.92592-6.47284-7.06113-6.47284H133.08919z"/>
</g>
<g>
	<path class="st0" d="M175.83099,41.67345c-9.62961,0-15.83456-6.20585-15.83456-16.26266V0.74892h8.23857v25.14291
		c0,4.92161,2.78119,8.29242,7.59599,8.29242c4.81482,0,7.54306-3.37081,7.54306-8.29242V0.74892h8.29152V25.4108
		C191.66557,35.4676,185.51357,41.67345,175.83099,41.67345z"/>
</g>
<g>
	<path class="st0" d="M195.81557,40.87113V0.74892h14.76482l6.4733,21.34491h1.71144l6.47328-21.34491h14.76482v40.12221h-8.29152
		V10.05725h-2.19336l-6.68689,22.52236h-9.89705l-6.68689-22.52236h-2.14041v30.81388H195.81557z"/>
</g>
</svg>
