<?xml version="1.0" encoding="utf-8"?>
<!-- Generator: Adobe Illustrator 26.1.0, SVG Export Plug-In . SVG Version: 6.00 Build 0)  -->
<svg version="1.1" id="Layer_1" xmlns="http://www.w3.org/2000/svg" xmlns:xlink="http://www.w3.org/1999/xlink" x="0px" y="0px"
	 viewBox="0 0 50 50" style="enable-background:new 0 0 50 50;" xml:space="preserve">
<style type="text/css">
	.st0{fill:#FFFFFF;}
</style>
<g>
	<path class="st0" d="M22.4,20.6l-1.6-1.6L19,20.9v-0.6c0.1-3.3,2.8-6.1,6.1-6.1c2.2,0,4.3,1.2,5.3,3.2l0.2,0.4l2-1l-0.3-0.5
		c-1.5-2.7-4.3-4.4-7.3-4.4c-4.6,0-8.3,3.7-8.3,8.3v0.6L14.9,19l-1.6,1.6l3.9,3.9h1.5L22.4,20.6z"/>
	<path class="st0" d="M33.4,22.6l1.8,1.8l1.6-1.6L33,19.1h-1.5l-3.9,3.8l1.6,1.6l1.8-1.8v0.8c0,3.4-2.8,6.1-6.1,6.1
		c-2.2,0-4.2-1.2-5.3-3l-0.1-0.4l-2,1l0.3,0.4c1.5,2.6,4.2,4.2,7.2,4.2c4.6,0,8.3-3.8,8.3-8.3V22.6z"/>
	<path class="st0" d="M37.7,4.8c-4-3.4-9.4-4.8-14.6-4.4c-4,0.3-7.9,1.8-10.9,4.4C5,11.1,5.1,21.6,7.6,29.3C8,30.4,8.2,31.7,8.4,33
		c0.4,2.1,0.8,4.5,2,6.8c1.3,2.6,3.3,4.8,5.6,6.4c1.8,1.3,4,2.7,6.7,3.2c0.7,0.1,1.4,0.2,2.1,0.2c2.1,0,4.2-0.6,6.3-1.7
		c3.9-2.1,6.7-4.8,8.4-8.2c1.2-2.3,1.6-4.7,2-6.8c0.2-1.3,0.5-2.5,0.8-3.6C44.9,21.6,45,11.1,37.7,4.8z M24.9,46c-0.5,0-1,0-1.4-0.1
		c-2-0.4-3.9-1.6-5.4-2.7c-1.9-1.3-3.4-3.1-4.5-5.1c-0.9-1.8-1.3-3.8-1.6-5.8c-0.3-1.4-0.5-2.8-0.9-4.1c-2.2-6.6-2.4-15.5,3.6-20.7
		c1.8-1.6,4.2-2.8,6.9-3.3c4.8-0.9,10.1,0,13.8,3.3c6,5.2,5.8,14.1,3.6,20.7c-0.4,1.4-0.7,2.7-0.9,4.2c-0.3,1.9-0.7,4-1.6,5.8
		c-1.4,2.7-3.7,4.9-6.9,6.6C27.9,45.6,26.4,46,24.9,46z"/>
</g>
</svg>
