<?xml version="1.0" encoding="utf-8"?>
<!-- Generator: Adobe Illustrator 26.1.0, SVG Export Plug-In . SVG Version: 6.00 Build 0)  -->
<svg version="1.1" xmlns="http://www.w3.org/2000/svg" xmlns:xlink="http://www.w3.org/1999/xlink" x="0px" y="0px"
	 viewBox="0 0 18.65792 23.25649" style="enable-background:new 0 0 18.65792 23.25649;" xml:space="preserve">
<style type="text/css">
	.st0{display:none;}
	.st1{display:inline;}
	.st2{fill:#FFFFFF;}
</style>
<g id="Layer_2" class="st0">
	<g class="st1">
		<rect x="-6.63614" y="-4.84705" width="34.58817" height="38.39992"/>
	</g>
</g>
<g id="Layer_1">
	<g>
		<polygon class="st2" points="-116.74972,10.51946 -137.34225,10.51946 -129.86963,3.04692 -131.86621,1.05015 
			-141.74895,10.93289 -141.74895,12.92966 -131.86621,22.8124 -129.86963,20.81563 -137.34225,13.3431 -116.74972,13.3431 		"/>
	</g>
	<g>
		<g>
			<polygon class="st2" points="-80.87267,16.94739 -74.34858,10.4233 -75.66675,9.10514 -80.59974,14.03823 -80.59974,0.44409 
				-82.46377,0.44409 -82.46377,14.03825 -87.39688,9.10514 -88.71493,10.4233 -82.19084,16.94739 			"/>
		</g>
		<g>
			<rect x="-92.71597" y="20.94837" class="st2" width="22.36837" height="1.86403"/>
		</g>
	</g>
	<g>
		<path class="st2" d="M-20.29913,1.44099h-22.00249c-0.08595,0-0.15563-0.06968-0.15563-0.15563V0.07843
			c0-0.08595,0.06968-0.15563,0.15563-0.15563h22.00249c0.08595,0,0.15563,0.06968,0.15563,0.15563v1.20693
			C-20.1435,1.37131-20.21317,1.44099-20.29913,1.44099z"/>
	</g>
	<g>
		<path class="st2" d="M-27.37588,5.99558h-14.92574c-0.08595,0-0.15563-0.06968-0.15563-0.15563V4.63301
			c0-0.08595,0.06968-0.15563,0.15563-0.15563h14.92574c0.08595,0,0.15563,0.06968,0.15563,0.15563v1.20693
			C-27.22025,5.9259-27.28992,5.99558-27.37588,5.99558z"/>
	</g>
	<g>
		<path class="st2" d="M-20.29913,11.01693h-22.00249c-0.08595,0-0.15563-0.06968-0.15563-0.15563V9.65437
			c0-0.08595,0.06968-0.15563,0.15563-0.15563h22.00249c0.08595,0,0.15563,0.06968,0.15563,0.15563v1.20693
			C-20.1435,10.94725-20.21317,11.01693-20.29913,11.01693z"/>
	</g>
	<g>
		<circle class="st2" cx="-41.29791" cy="14.74651" r="1.15934"/>
	</g>
	<g>
		<circle class="st2" cx="-35.86659" cy="14.74651" r="1.15934"/>
	</g>
	<g>
		<circle class="st2" cx="-30.43528" cy="14.74651" r="1.15934"/>
	</g>
	<g>
		<path class="st2" d="M5.32152,11.26166L3.59653,9.53671l0.48504-0.48508l1.17581,1.17598l0.00864-0.87807
			c0.02173-2.21808,1.84434-4.02259,4.06288-4.02259c1.50736,0,2.86352,0.81257,3.5753,2.13106l-0.61565,0.30376
			C11.6937,6.67908,10.5733,6.01284,9.32891,6.01284c-1.83514,0-3.34992,1.49253-3.37673,3.32713l-0.01326,0.90882L7.1362,9.05162
			l0.485,0.48508l-1.72512,1.72495H5.32152z"/>
	</g>
	<g>
		<path class="st2" d="M9.32891,15.05328c-1.46182,0-2.79802-0.77707-3.52328-2.03794l0.60744-0.32003
			c0.60578,1.03524,1.70932,1.67199,2.91584,1.67199c1.86217,0,3.37716-1.51499,3.37716-3.37712
			c0-0.0316-0.00042-0.06355-0.0014-0.09566l-0.0255-0.85349l-1.15734,1.15725l-0.485-0.48508l1.72486-1.72495h0.57469
			l1.72491,1.72495l-0.48496,0.48508l-1.20246-1.2025l0.01737,0.91458c0.00051,0.02661,0.00076,0.05321,0.00076,0.07982
			C13.392,13.23055,11.56931,15.05328,9.32891,15.05328z"/>
	</g>
	<g>
		<path class="st2" d="M9.28076,22.91926c-0.31543,0-0.62891-0.03125-0.93359-0.09277
			c-1.2002-0.24414-2.19727-0.87988-3.03906-1.45703c-1.06445-0.73242-1.93945-1.7373-2.53125-2.90625
			c-0.52734-1.04004-0.72168-2.13379-0.89258-3.09961c-0.1123-0.62695-0.21777-1.21875-0.40039-1.77441
			C0.32471,10.07844,0.26123,5.29573,3.56201,2.40071C4.60596,1.48469,5.9458,0.84016,7.43603,0.53694
			c0.14453-0.0293,1.375-0.19922,1.82129-0.19922h0.14355c0.4502,0,1.67871,0.17041,1.82129,0.19922
			c1.49023,0.30322,2.83008,0.94775,3.87402,1.86377c3.29883,2.89404,3.23633,7.67725,2.07812,11.18848
			c-0.18066,0.54688-0.28613,1.13574-0.39746,1.75879c-0.17383,0.98145-0.36816,2.0752-0.89551,3.11523
			c-0.76172,1.50391-2.04297,2.74707-3.80859,3.69434C11.13037,22.66243,10.19092,22.91926,9.28076,22.91926z M9.25635,1.3011
			c-0.35449,0-1.53027,0.16064-1.62695,0.18018C6.30322,1.75032,5.11572,2.31916,4.19678,3.12532
			c-2.94531,2.5835-2.86035,6.94336-1.79785,10.16211c0.20215,0.61426,0.31348,1.23828,0.43164,1.89844
			c0.1709,0.95898,0.3457,1.93359,0.80566,2.84277c0.51855,1.02441,1.28516,1.9043,2.21777,2.5459
			c0.76074,0.52344,1.6582,1.09961,2.68457,1.30664c0.24414,0.0498,0.49316,0.07422,0.74219,0.07422
			c0.74902,0,1.53516-0.21777,2.33594-0.64648c1.58984-0.85352,2.73535-1.95703,3.40527-3.28027
			c0.46191-0.91211,0.63574-1.88867,0.80371-2.83398c0.11719-0.66211,0.22852-1.28711,0.43359-1.90723
			c1.0625-3.21875,1.14746-7.57861-1.79785-10.16211c-0.91895-0.80615-2.10645-1.375-3.43262-1.64404
			C10.9331,1.46125,9.76025,1.3011,9.40088,1.3011H9.25635z"/>
		<path class="st2" d="M9.401,0.48762c0.42957,0,1.65369,0.16864,1.79041,0.19641c1.46448,0.29755,2.78052,0.93024,3.80591,1.82953
			c3.24451,2.8454,3.17822,7.56281,2.0343,11.02887c-0.1853,0.56146-0.29199,1.16058-0.40503,1.7948
			c-0.17041,0.95679-0.36365,2.04083-0.87891,3.05835c-0.74731,1.47626-2.00781,2.69745-3.74646,3.62976
			c-0.92017,0.49341-1.83545,0.74353-2.72058,0.74353c-0.30505,0-0.60913-0.03027-0.90356-0.0899
			c-1.17529-0.2381-2.15637-0.86487-2.98364-1.43365c-1.04431-0.71802-1.90295-1.70343-2.48328-2.84967
			c-0.51526-1.0177-0.70837-2.10175-0.87878-3.05817c-0.11316-0.63458-0.21997-1.23376-0.40503-1.79492
			c-1.14392-3.46613-1.21033-8.18359,2.0343-11.02899C4.68603,1.61427,6.0022,0.98158,7.46679,0.68397
			C7.60364,0.65614,8.82812,0.48762,9.2572,0.48762c0.01965,0,0.03882,0.00037,0.05774,0.00092l0.0127,0.00037l0.01489-0.00037
			C9.36181,0.48799,9.38122,0.48762,9.401,0.48762 M9.32593,1.15345C9.30896,1.15181,9.28418,1.15113,9.25696,1.15113H9.25671
			c-0.37085,0-1.5575,0.1626-1.65784,0.18298C6.24707,1.60896,5.03662,2.18934,4.09802,3.01246
			c-3.0011,2.63177-2.91907,7.05774-1.84167,10.32202c0.19995,0.60596,0.31079,1.22784,0.4281,1.88629
			c0.17029,0.95605,0.34644,1.94452,0.81763,2.87518c0.5304,1.04755,1.31433,1.94745,2.26733,2.60266
			c0.77332,0.53168,1.68652,1.11688,2.73938,1.33014c0.25146,0.05084,0.51123,0.07666,0.77185,0.07666
			c0.77466,0,1.58447-0.22369,2.4071-0.66479c1.61646-0.86682,2.78333-1.99213,3.46814-3.34467
			c0.47119-0.93066,0.64722-1.91913,0.81763-2.87506c0.11731-0.65857,0.22803-1.28046,0.4281-1.88641
			c1.07739-3.26428,1.1593-7.69025-1.8418-10.32202c-0.93848-0.82318-2.14905-1.4035-3.50073-1.67828
			C10.9591,1.31385,9.77331,1.15113,9.401,1.15113C9.37366,1.15113,9.349,1.15181,9.32593,1.15345 M9.401,0.18763L9.33398,0.18867
			L9.2572,0.18763c-0.45728,0-1.70532,0.17291-1.85022,0.20239C5.89136,0.69795,4.52746,1.35426,3.46289,2.28804
			c-3.35474,2.94183-3.29541,7.7912-2.12146,11.34851c0.17834,0.54071,0.28333,1.12964,0.39453,1.75317
			c0.17407,0.97736,0.37134,2.08441,0.90649,3.14142c0.60303,1.19104,1.49548,2.21503,2.58105,2.96136
			c0.85168,0.58557,1.86328,1.2312,3.09399,1.48047c0.31409,0.06366,0.63818,0.09589,0.96313,0.09589
			c0.93518,0,1.89819-0.26215,2.8623-0.77911c1.79395-0.96198,3.0968-2.22656,3.87244-3.75867
			c0.5354-1.05737,0.73254-2.16449,0.90662-3.14124c0.11133-0.62476,0.21606-1.21289,0.39453-1.75342
			c1.17395-3.55719,1.23315-8.40643-2.12146-11.34839c-1.06458-0.93378-2.42847-1.59009-3.94397-1.89801
			C11.10596,0.36055,9.8573,0.18763,9.401,0.18763L9.401,0.18763z M9.28186,1.45356l0.06543-0.00085L9.401,1.45112
			c0.33826,0,1.49768,0.15747,1.59875,0.17712c1.30017,0.26434,2.46301,0.82098,3.36218,1.60974
			c2.89111,2.53528,2.80212,6.82928,1.75476,10.00244c-0.20667,0.62592-0.31921,1.25775-0.43835,1.92664
			c-0.16699,0.93695-0.33911,1.90271-0.79016,2.7934c-0.65649,1.29663-1.78101,2.37854-3.34216,3.21576
			c-0.77869,0.41748-1.54077,0.62921-2.26538,0.62921c-0.2406,0-0.48035-0.0238-0.7124-0.07074
			c-0.99719-0.20197-1.87988-0.76831-2.62891-1.28326c-0.91162-0.62683-1.66187-1.48816-2.16956-2.49097
			c-0.45142-0.89154-0.62354-1.85779-0.78992-2.7923c-0.11926-0.66913-0.23181-1.30115-0.4386-1.92767
			C1.49389,10.06727,1.40478,5.7732,4.29577,3.23805c0.89954-0.78882,2.06238-1.34552,3.36292-1.60992
			c0.10059-0.01959,1.25977-0.177,1.59802-0.177L9.28186,1.45356L9.28186,1.45356z"/>
	</g>
</g>
</svg>
